
<svg width="27" height="27" viewBox="0 0 27 27" fill="none" xmlns="http://www.w3.org/2000/svg">
<path fill-rule="evenodd" clip-rule="evenodd" d="M19.9041 9.75011C19.6456 10.2048 19.8054 10.7883 20.2601 11.0469L22.5887 12.3727C23.043 12.6312 23.6265 12.471 23.8854 12.0167C24.1439 11.562 23.9837 10.9788 23.5294 10.7199L21.2008 9.39446C20.7461 9.13556 20.163 9.29581 19.9041 9.75011ZM18.0302 8.64951C18.2641 8.18199 18.1307 7.60863 17.6745 7.35275L12.8995 4.67572C12.7547 4.59483 12.5948 4.55401 12.4365 4.55061H12.4353H12.4164H12.4055L12.393 4.55099L12.379 4.55137L12.3715 4.55175L12.3564 4.5525L12.3473 4.55288L12.3325 4.55401L12.3246 4.55477L12.3091 4.55628L12.3019 4.55742L12.2823 4.55968L12.2804 4.56006L12.2611 4.56271L12.2562 4.56384L12.2384 4.56687L12.2335 4.56762L12.2169 4.57102L12.2097 4.57253L12.1931 4.57632L12.1882 4.57745L12.1689 4.58236L12.167 4.58274L12.1466 4.58841L12.1447 4.58879C12.0725 4.60995 12.0018 4.63905 11.9346 4.6776L1.23131 10.7974C0.777392 11.0567 0.641708 11.6263 0.875282 12.0938C1.10924 12.5617 1.71812 12.7095 2.17204 12.4498L12.1288 6.7571C12.1387 6.75445 12.1541 6.74879 12.178 6.74009C12.2313 6.72044 12.3284 6.6868 12.4274 6.68642C12.5264 6.68642 12.6277 6.71968 12.678 6.73745L12.7063 6.74765L16.7338 9.00554C17.1896 9.26104 17.7966 9.11742 18.0302 8.64951V8.64951ZM18.0302 4.5559C18.2641 4.088 18.1307 3.51502 17.6745 3.25915L12.8995 0.582108C12.7623 0.505384 12.6115 0.464564 12.4614 0.45776H12.4539L12.4403 0.457008H12.4278H12.4164H12.4055H12.393L12.3794 0.45776H12.3718C12.3571 0.458516 12.3424 0.459653 12.3276 0.460787L12.3269 0.461165C12.3121 0.462299 12.2978 0.464189 12.283 0.466079L12.28 0.466457L12.2592 0.469479L12.2577 0.469857C12.2278 0.474771 12.198 0.480818 12.1681 0.488755L12.1674 0.489133C12.0872 0.509921 12.009 0.541291 11.9349 0.584L1.23131 6.70343C0.777392 6.96308 0.641708 7.53266 0.875282 8.00019C1.10924 8.46809 1.71812 8.61587 2.17204 8.35622L12.1288 2.6635C12.1387 2.66085 12.1538 2.65518 12.178 2.64611C12.2313 2.62683 12.3284 2.5932 12.4274 2.59282C12.5264 2.59282 12.6277 2.62608 12.678 2.64346L12.7063 2.65367L16.7338 4.91194C17.1896 5.16743 17.7962 5.02381 18.0302 4.5559V4.5559ZM6.81405 22.8696V22.87C6.58048 23.3375 6.7139 23.9109 7.17009 24.1664L11.9451 26.8434C12.0895 26.9243 12.2486 26.9651 12.4066 26.9685H12.413L12.4278 26.9689L12.4429 26.9685H12.4493L12.4667 26.9681L12.4728 26.9677L12.492 26.9666H12.4951L12.517 26.9647H12.5174L12.5397 26.9625L12.5408 26.9621L12.562 26.9594H12.5642C12.5865 26.956 12.6092 26.9522 12.6315 26.9473H12.6319C12.7279 26.9269 12.8216 26.8922 12.9097 26.8419L23.6133 20.7221C24.0672 20.4624 24.2029 19.8932 23.9689 19.4253C23.7354 18.9578 23.1265 18.81 22.6726 19.0693L12.7154 24.7624C12.7056 24.7647 12.6905 24.7707 12.6667 24.7794C12.6134 24.7991 12.5162 24.8327 12.4172 24.8327C12.3178 24.8331 12.2169 24.7994 12.1666 24.782L12.1383 24.7718L8.11081 22.514C7.65462 22.2581 7.048 22.4021 6.81405 22.8696V22.8696ZM6.81405 18.776C6.58048 19.2439 6.7139 19.8169 7.17009 20.0728L11.9451 22.7498C12.0891 22.8307 12.2483 22.8715 12.4062 22.8749H12.4149H12.4278H12.4391H12.4512L12.4652 22.8745L12.4728 22.8741L12.4901 22.873L12.4958 22.8726L12.517 22.8711H12.5174L12.5374 22.8689L12.5427 22.8685L12.5582 22.8666L12.5665 22.8654L12.5854 22.8624L12.5869 22.862C12.6016 22.8598 12.6168 22.8571 12.6315 22.8537H12.6319C12.6542 22.8488 12.6765 22.8435 12.6988 22.8371H12.6992C12.7717 22.8163 12.8424 22.7868 12.9097 22.7483L23.6133 16.6285C24.0672 16.3688 24.2029 15.7992 23.9689 15.3317C23.7354 14.8642 23.1265 14.7164 22.6726 14.9757L12.7154 20.6688C12.7056 20.6711 12.6905 20.6771 12.6667 20.6858C12.6134 20.7054 12.5162 20.7387 12.4172 20.7391C12.3178 20.7391 12.2169 20.7058 12.1666 20.6884L12.1383 20.6782L8.11081 18.4203C7.65462 18.1645 7.048 18.3085 6.81405 18.776V18.776ZM11.4379 10.1844C11.6719 10.6519 11.5354 11.2207 11.0819 11.4811L7.66218 13.4435C7.65538 13.4518 7.64328 13.4627 7.62136 13.4816C7.57109 13.5251 7.47018 13.6128 7.47056 13.705C7.47093 13.7976 7.57261 13.8951 7.63799 13.9522C7.66861 13.979 7.6909 13.9968 7.70224 14.0089L11.0819 15.9482C11.5354 16.2086 11.6719 16.777 11.4379 17.2449C11.204 17.7124 10.5947 17.861 10.1412 17.6009L4.82224 14.5486C4.5127 14.371 4.35094 14.0497 4.35396 13.7145C4.35094 13.3796 4.5127 13.0583 4.82224 12.8803L10.1412 9.82835C10.5947 9.56831 11.204 9.71647 11.4379 10.1844V10.1844ZM13.4135 10.1844C13.1795 10.6519 13.3156 11.2207 13.7691 11.4808L17.1892 13.4435C17.1957 13.4518 17.2081 13.4627 17.2297 13.4816C17.2803 13.5251 17.3812 13.6128 17.3809 13.705C17.3801 13.7976 17.2784 13.8951 17.2134 13.9526C17.1828 13.979 17.1601 13.9968 17.1492 14.0089L13.7691 15.9482C13.3156 16.2086 13.1795 16.777 13.4135 17.2449C13.6474 17.7124 14.2563 17.861 14.7099 17.6009L20.0288 14.5486C20.3387 14.371 20.5005 14.0497 20.4975 13.7145C20.5005 13.3796 20.3387 13.0583 20.0288 12.8803L14.7099 9.82835C14.2563 9.56831 13.6474 9.71647 13.4135 10.1844V10.1844ZM0.931597 19.459C0.673077 19.9133 0.833329 20.4968 1.28763 20.7557L3.61619 22.0812C4.07049 22.3401 4.65405 22.1798 4.91295 21.7252C5.17147 21.2709 5.01122 20.6873 4.55692 20.4288L2.22835 19.1029C1.77405 18.8444 1.19049 19.0047 0.931597 19.459V19.459ZM0.925172 15.5506C0.666653 16.0048 0.826526 16.5884 1.2812 16.8473L3.60977 18.1728C4.06407 18.4313 4.64763 18.2714 4.90653 17.8168C5.16505 17.3625 5.00479 16.7789 4.55049 16.5204L2.22193 15.1945C1.76763 14.936 1.18407 15.0959 0.925172 15.5506V15.5506ZM19.9434 5.76497C19.6849 6.21965 19.8451 6.80321 20.2994 7.06173L22.628 8.38721C23.0827 8.64611 23.6658 8.48586 23.9247 8.03156C24.1833 7.57688 24.0234 6.9937 23.5687 6.7348L21.2401 5.40932C20.7858 5.15042 20.2023 5.31068 19.9434 5.76497Z" fill="url(#paint0_linear_1_3)"/>
<defs>
<linearGradient id="paint0_linear_1_3" x1="4.91295" y1="21.7248" x2="24.2441" y2="-0.400567" gradientUnits="userSpaceOnUse">
<stop stop-color="#17F9FD"/>
<stop offset="0.439216" stop-color="#8791FB"/>
<stop offset="1" stop-color="#F828F8"/>
</linearGradient>
</defs>
</svg>
